<svg id="Layer_1" data-name="Layer 1" xmlns="http://www.w3.org/2000/svg" viewBox="0 0 100 52"><defs><style>.cls-1{fill:#e60e64;}.cls-2{fill:#9fa1a4;}</style></defs><title>logo_login</title><g id="Page-1"><g id="_2.1_cob_login_1" data-name="2.1_cob_login_1"><g id="LOGO_pink" data-name="LOGO/pink"><g id="LOGO"><path id="Fill-1" class="cls-1" d="M20.59,28.21a4.26,4.26,0,1,0,4.22,4.26,4.27,4.27,0,0,0-4.22-4.26M6.12,18.05V32.52A14.35,14.35,0,0,0,15.6,46.1,14,14,0,0,0,30.51,43a13.81,13.81,0,0,0,3.76-5.89,2.75,2.75,0,0,0-2.43-3.77A3.59,3.59,0,0,0,28,35.61a7.77,7.77,0,0,1-6.54,4.89,8,8,0,0,1-8.83-6.77,8.05,8.05,0,0,1,15.46-4.2A3.53,3.53,0,0,0,33.43,31a2.64,2.64,0,0,0,.85-3.1,14.46,14.46,0,0,0-5-7,14,14,0,0,0-7.11-2.86,14.21,14.21,0,0,0-8.79,1.82,2,2,0,0,1-1.71.18,2,2,0,0,1-.35-3.61,16.86,16.86,0,0,1,5.31-2.06A18.09,18.09,0,0,1,33.17,19a17.5,17.5,0,0,1,5.57,10.47,18.09,18.09,0,0,1-4.82,15.76,17.5,17.5,0,0,1-10.14,5.46A17.93,17.93,0,0,1,8,46,17.74,17.74,0,0,1,2.35,35.27a19.86,19.86,0,0,1-.21-2.89q0-14.61,0-29.23A2,2,0,0,1,3.57,1.08,2,2,0,0,1,6.12,3v15"/><g id="Group"><path id="CONNECTED" class="cls-2" d="M46.74,28.26h.9a7.25,7.25,0,0,1-.08,1.62c-.09.45-.35,1.23-1.74,1.23A1.63,1.63,0,0,1,44,29.69,16,16,0,0,1,44,27.2a14.83,14.83,0,0,1,.09-2.62,1.64,1.64,0,0,1,1.85-1.47,1.56,1.56,0,0,1,1.62,1.12,6.19,6.19,0,0,1,.08,1.45h-.9v-.59c0-.53,0-1.16-.8-1.16s-.89.66-.92.95c-.07.56-.07,1.74-.07,2.34s0,2,.07,2.35a.83.83,0,0,0,.9.73.81.81,0,0,0,.82-.74A7.54,7.54,0,0,0,46.74,28.26ZM53.69,27c0,.6,0,1.49-.07,2.08,0,1-.3,2-1.9,2a2.12,2.12,0,0,1-1-.22,1.52,1.52,0,0,1-.74-1.16,19.21,19.21,0,0,1-.08-2.35c0-.49,0-2.12.06-2.54a1.73,1.73,0,0,1,1.94-1.73,1.6,1.6,0,0,1,1.78,1.63C53.71,25.4,53.69,26.8,53.69,27Zm-2.84.54c0,.52,0,.53,0,1,0,.75-.11,1.73.91,1.73.82,0,.85-.73.89-1.24s.06-1.44.05-2.06,0-1.22,0-1.83,0-1.25-.89-1.25-.91.84-.93,1.24S50.85,25.68,50.85,27.55ZM60,23.22V31H58.61L57.1,24.27,57.23,31h-.94V23.22H57.6L59.17,30,59,23.22Zm6.35,0V31H65l-1.51-6.73L63.58,31h-.94V23.22H64L65.52,30l-.13-6.81Zm6.15,6.91V31H69V23.23h3.4v.87H69.94v2.31h2.14v.88H69.94v2.84Zm4.9-1.87h.9a7.25,7.25,0,0,1-.08,1.62c-.1.45-.35,1.23-1.74,1.23a1.64,1.64,0,0,1-1.79-1.42,19.36,19.36,0,0,1-.07-2.49,17.21,17.21,0,0,1,.08-2.62,1.66,1.66,0,0,1,1.86-1.47,1.56,1.56,0,0,1,1.62,1.12,5.75,5.75,0,0,1,.07,1.45h-.89v-.59c0-.53,0-1.16-.8-1.16s-.89.66-.93.95c-.06.56-.06,1.74-.06,2.34s0,2,.06,2.35a.85.85,0,0,0,.9.73.83.83,0,0,0,.83-.74A7.54,7.54,0,0,0,77.37,28.26Zm4.72-4.16V31h-1V24.1H79.67v-.87h3.89v.87Zm6.71,6V31H85.31V23.23h3.4v.87H86.28v2.31h2.14v.88H86.28v2.84Zm3.62.87H91V23.23h1.45c.76,0,1.45,0,1.91.59s.4.85.4,2.74c0,.41,0,.91,0,2a3.59,3.59,0,0,1-.3,1.78C94,31,93.26,31,92.42,31ZM92,24.12v6h.63c.61,0,1-.05,1.16-.75.05-.36.06-1.45.06-1.86,0-.71,0-1,0-1.73s0-1.27-.36-1.51S93,24.12,92,24.12Z"/><path id="BUSINESSES" class="cls-2" d="M44,33.23h1.42a3,3,0,0,1,1.62.26,1.8,1.8,0,0,1,.7,1.57c0,1-.38,1.75-1.25,1.75,1.05,0,1.37.89,1.37,1.81a2.49,2.49,0,0,1-.5,1.86c-.49.52-1,.52-2,.52H44Zm1,.87v2.32h.66c.56,0,1.17,0,1.17-1.17s-.56-1.15-1.28-1.15Zm.53,3.16H45v2.9h.55c.75,0,1.39,0,1.39-1.27C46.93,37.33,46.48,37.26,45.52,37.26Zm7.38-4h1v5.24a4.31,4.31,0,0,1-.18,1.74,1.76,1.76,0,0,1-1.69.9,1.67,1.67,0,0,1-1.71-.85c-.16-.34-.18-.56-.18-1.72V33.23h1V38.9c0,.67,0,1.37.93,1.37s.85-.58.87-.94,0-.38,0-.95ZM56,39.17v-.85h.93c0,.81,0,.9,0,1a.87.87,0,0,0,.93.92.9.9,0,0,0,1-1,1.8,1.8,0,0,0-.71-1.38l-1-1.08a2.41,2.41,0,0,1-.89-1.93A1.61,1.61,0,0,1,58,33.11a1.58,1.58,0,0,1,1.41.64c.22.36.22.63.22,1.77h-.84a6,6,0,0,0,0-1,.71.71,0,0,0-.8-.62.78.78,0,0,0-.81.92c0,.58.21.82.76,1.4l1,1a2.48,2.48,0,0,1,.92,2,1.72,1.72,0,0,1-1.87,1.86,1.88,1.88,0,0,1-1.29-.39A1.81,1.81,0,0,1,56,39.17Zm6.88-5.94V41h-1V33.23Zm6.35,0V41H67.88l-1.51-6.73L66.5,41h-.94V33.22h1.32L68.44,40l-.13-6.81Zm6.15,6.91V41H71.9V33.23h3.4v.87H72.86v2.31H75v.88H72.86v2.84Zm1.93-1v-.85h.92c0,.81,0,.9,0,1a.88.88,0,0,0,.93.92.9.9,0,0,0,1-1,1.83,1.83,0,0,0-.71-1.38l-1.06-1.08a2.43,2.43,0,0,1-.88-1.93,1.61,1.61,0,0,1,1.79-1.82,1.59,1.59,0,0,1,1.42.64c.22.36.22.63.22,1.77h-.85c0-.74,0-.81,0-1a.71.71,0,0,0-.8-.62.78.78,0,0,0-.81.92c0,.58.21.82.75,1.4l1,1a2.48,2.48,0,0,1,.92,2,1.72,1.72,0,0,1-1.87,1.86,1.92,1.92,0,0,1-1.3-.39A1.83,1.83,0,0,1,77.32,39.17Zm5.67,0v-.85h.92c0,.81,0,.9,0,1a.88.88,0,0,0,.93.92.9.9,0,0,0,1-1,1.8,1.8,0,0,0-.71-1.38l-1.05-1.08a2.41,2.41,0,0,1-.89-1.93A1.61,1.61,0,0,1,85,33.11a1.58,1.58,0,0,1,1.41.64c.22.36.22.63.22,1.77h-.85c0-.74,0-.81,0-1a.71.71,0,0,0-.8-.62.78.78,0,0,0-.81.92c0,.58.21.82.76,1.4l1,1a2.48,2.48,0,0,1,.92,2,1.72,1.72,0,0,1-1.87,1.86,1.92,1.92,0,0,1-1.3-.39A1.83,1.83,0,0,1,83,39.17Zm9.41,1V41H88.91V33.23h3.4v.87H89.88v2.31H92v.88H89.88v2.84Zm1.7-1v-.85H95a8.42,8.42,0,0,0,0,1,.87.87,0,0,0,.93.92.9.9,0,0,0,1-1,1.8,1.8,0,0,0-.71-1.38l-1-1.08a2.41,2.41,0,0,1-.89-1.93,1.61,1.61,0,0,1,1.8-1.82,1.58,1.58,0,0,1,1.41.64c.22.36.22.63.22,1.77h-.84a6,6,0,0,0,0-1,.71.71,0,0,0-.8-.62.78.78,0,0,0-.81.92c0,.58.21.82.76,1.4l1,1a2.48,2.48,0,0,1,.92,2A1.72,1.72,0,0,1,96,41.11a1.88,1.88,0,0,1-1.29-.39A1.81,1.81,0,0,1,94.1,39.17Z"/></g></g></g></g></g></svg>